<svg xmlns="http://www.w3.org/2000/svg" width="252" height="48" viewBox="0 0 252 48" fill="none"><g clip-path="url(#clip0_204_108)"><path d="M80.1296 11.4199V30.9599H76.2096V18.2499L70.9696 30.9599H67.9996L62.7296 18.2499V30.9599H58.8096V11.4199H63.2596L69.4696 25.9499L75.6896 11.4199H80.1096H80.1296Z" fill="#2D2D2D"></path><path d="M98.6396 15.4499V30.9599H94.6896V28.9999C94.1896 29.6699 93.5296 30.1999 92.7196 30.5799C91.9096 30.9599 91.0296 31.1499 90.0696 31.1499C88.8596 31.1499 87.7796 30.8899 86.8496 30.3799C85.9196 29.8699 85.1796 29.1099 84.6496 28.1099C84.1196 27.1099 83.8496 25.9199 83.8496 24.5399V15.4399H87.7696V23.9799C87.7696 25.2099 88.0796 26.1599 88.6896 26.8199C89.3096 27.4799 90.1496 27.8099 91.2096 27.8099C92.2696 27.8099 93.1396 27.4799 93.7596 26.8199C94.3796 26.1599 94.6796 25.2099 94.6796 23.9799V15.4399H98.6296L98.6396 15.4499Z" fill="#2D2D2D"></path><path d="M105.019 30.5302C104.009 30.0702 103.209 29.4502 102.629 28.6702C102.039 27.8902 101.719 27.0202 101.659 26.0702H105.609C105.679 26.6702 105.979 27.1602 106.489 27.5502C106.999 27.9402 107.639 28.1402 108.409 28.1402C109.179 28.1402 109.739 27.9902 110.159 27.6902C110.579 27.3902 110.789 27.0102 110.789 26.5402C110.789 26.0402 110.529 25.6602 110.019 25.4102C109.509 25.1602 108.689 24.8802 107.569 24.5802C106.409 24.3002 105.469 24.0102 104.729 23.7102C103.989 23.4102 103.359 22.9502 102.829 22.3402C102.299 21.7202 102.029 20.8902 102.029 19.8502C102.029 18.9902 102.279 18.2102 102.769 17.5002C103.259 16.7902 103.969 16.2302 104.899 15.8202C105.819 15.4102 106.909 15.2002 108.159 15.2002C110.009 15.2002 111.479 15.6602 112.579 16.5902C113.679 17.5202 114.289 18.7602 114.399 20.3302H110.649C110.599 19.7102 110.339 19.2202 109.879 18.8602C109.419 18.5002 108.809 18.3102 108.049 18.3102C107.339 18.3102 106.789 18.4402 106.409 18.7002C106.029 18.9602 105.839 19.3302 105.839 19.7902C105.839 20.3102 106.099 20.7102 106.629 20.9802C107.149 21.2502 107.959 21.5302 109.069 21.8102C110.189 22.0902 111.109 22.3802 111.839 22.6802C112.569 22.9802 113.199 23.4402 113.729 24.0702C114.259 24.7002 114.539 25.5202 114.559 26.5502C114.559 27.4502 114.309 28.2502 113.819 28.9602C113.329 29.6702 112.619 30.2302 111.689 30.6302C110.769 31.0302 109.689 31.2302 108.459 31.2302C107.229 31.2302 106.049 31.0002 105.039 30.5402L105.019 30.5302Z" fill="#2D2D2D"></path><path d="M121.68 10.2402V30.9602H117.76V10.2402H121.68Z" fill="#2D2D2D"></path><path d="M125.809 12.94C125.349 12.5 125.119 11.96 125.119 11.3C125.119 10.64 125.349 10.1 125.809 9.66C126.269 9.22 126.839 9 127.529 9C128.219 9 128.789 9.22 129.249 9.66C129.709 10.1 129.939 10.64 129.939 11.3C129.939 11.96 129.709 12.5 129.249 12.94C128.789 13.38 128.219 13.6 127.529 13.6C126.839 13.6 126.259 13.38 125.809 12.94ZM129.459 15.45V30.96H125.539V15.45H129.459Z" fill="#2D2D2D"></path><path d="M157.199 16.97C158.369 18.14 158.949 19.77 158.949 21.86V30.96H155.029V22.39C155.029 21.18 154.719 20.25 154.109 19.6C153.489 18.96 152.649 18.63 151.589 18.63C150.529 18.63 149.679 18.95 149.049 19.6C148.429 20.24 148.109 21.17 148.109 22.39V30.96H144.189V22.39C144.189 21.18 143.879 20.25 143.269 19.6C142.649 18.96 141.809 18.63 140.749 18.63C139.689 18.63 138.809 18.95 138.189 19.6C137.559 20.24 137.249 21.17 137.249 22.39V30.96H133.329V15.45H137.249V17.33C137.759 16.68 138.399 16.16 139.199 15.79C139.989 15.42 140.869 15.23 141.819 15.23C143.029 15.23 144.119 15.49 145.069 16C146.019 16.51 146.759 17.25 147.279 18.2C147.779 17.3 148.519 16.59 149.479 16.04C150.439 15.5 151.479 15.23 152.599 15.23C154.499 15.23 156.039 15.81 157.209 16.98L157.199 16.97Z" fill="#2D2D2D"></path><path d="M165.189 30.5302C164.179 30.0702 163.379 29.4502 162.799 28.6702C162.209 27.8902 161.889 27.0202 161.829 26.0702H165.779C165.849 26.6702 166.149 27.1602 166.659 27.5502C167.169 27.9402 167.809 28.1402 168.579 28.1402C169.349 28.1402 169.909 27.9902 170.329 27.6902C170.749 27.3902 170.959 27.0102 170.959 26.5402C170.959 26.0402 170.699 25.6602 170.189 25.4102C169.679 25.1602 168.859 24.8802 167.739 24.5802C166.579 24.3002 165.639 24.0102 164.899 23.7102C164.159 23.4102 163.529 22.9502 162.999 22.3402C162.469 21.7202 162.199 20.8902 162.199 19.8502C162.199 18.9902 162.449 18.2102 162.939 17.5002C163.429 16.7902 164.139 16.2302 165.069 15.8202C165.989 15.4102 167.079 15.2002 168.329 15.2002C170.179 15.2002 171.649 15.6602 172.749 16.5902C173.849 17.5202 174.459 18.7602 174.569 20.3302H170.819C170.769 19.7102 170.509 19.2202 170.049 18.8602C169.589 18.5002 168.979 18.3102 168.219 18.3102C167.509 18.3102 166.959 18.4402 166.579 18.7002C166.199 18.9602 166.009 19.3302 166.009 19.7902C166.009 20.3102 166.269 20.7102 166.799 20.9802C167.319 21.2502 168.129 21.5302 169.239 21.8102C170.359 22.0902 171.279 22.3802 172.009 22.6802C172.739 22.9802 173.369 23.4402 173.899 24.0702C174.429 24.7002 174.709 25.5202 174.729 26.5502C174.729 27.4502 174.479 28.2502 173.989 28.9602C173.499 29.6702 172.789 30.2302 171.859 30.6302C170.939 31.0302 169.859 31.2302 168.629 31.2302C167.399 31.2302 166.219 31.0002 165.209 30.5402L165.189 30.5302Z" fill="#2D2D2D"></path><path d="M196.85 12.6199C198.41 13.4199 199.61 14.5699 200.46 16.0499C201.31 17.5299 201.74 19.2599 201.74 21.2199C201.74 23.1799 201.31 24.8899 200.46 26.3599C199.61 27.8299 198.41 28.9599 196.85 29.7599C195.29 30.5599 193.48 30.9599 191.43 30.9599H184.6V11.4199H191.43C193.48 11.4199 195.29 11.8199 196.85 12.6199ZM196.05 25.9499C197.17 24.8299 197.73 23.2499 197.73 21.2199C197.73 19.1899 197.17 17.5899 196.05 16.4499C194.93 15.2999 193.34 14.7299 191.29 14.7299H188.52V27.6399H191.29C193.34 27.6399 194.93 27.0799 196.05 25.9599V25.9499Z" fill="#2D2D2D"></path><path d="M204.6 18.9802C205.22 17.7702 206.07 16.8302 207.15 16.1802C208.22 15.5302 209.42 15.2002 210.75 15.2002C211.91 15.2002 212.92 15.4302 213.79 15.9002C214.66 16.3702 215.35 16.9502 215.88 17.6602V15.4502H219.83V30.9602H215.88V28.6902C215.38 29.4202 214.68 30.0202 213.79 30.5002C212.9 30.9802 211.88 31.2102 210.73 31.2102C209.42 31.2102 208.23 30.8702 207.16 30.2002C206.09 29.5302 205.24 28.5802 204.61 27.3602C203.99 26.1402 203.67 24.7302 203.67 23.1502C203.67 21.5702 203.98 20.1902 204.61 18.9802H204.6ZM215.31 20.7502C214.93 20.0702 214.43 19.5502 213.8 19.1802C213.17 18.8102 212.49 18.6302 211.76 18.6302C211.03 18.6302 210.36 18.8102 209.74 19.1602C209.12 19.5102 208.62 20.0302 208.24 20.7102C207.86 21.3902 207.67 22.2002 207.67 23.1302C207.67 24.0602 207.86 24.8802 208.24 25.5802C208.62 26.2802 209.13 26.8202 209.75 27.1902C210.37 27.5602 211.04 27.7502 211.75 27.7502C212.46 27.7502 213.16 27.5702 213.79 27.2002C214.42 26.8302 214.93 26.3102 215.3 25.6302C215.67 24.9502 215.86 24.1302 215.86 23.1802C215.86 22.2302 215.67 21.4102 215.3 20.7302L215.31 20.7502Z" fill="#2D2D2D"></path><path d="M238.499 15.4502L228.899 38.3002H224.729L228.089 30.5702L221.869 15.4502H226.269L230.269 26.2902L234.329 15.4502H238.499Z" fill="#2D2D2D"></path><g clip-path="url(#clip1_204_108)"><path d="M36.8852 0.0405273H12.1179C5.58446 0.0405273 0.288086 5.28142 0.288086 11.7464V36.2543C0.288086 42.7192 5.58446 47.9601 12.1179 47.9601H36.8852C43.4186 47.9601 48.7149 42.7192 48.7149 36.2543V11.7464C48.7149 5.28142 43.4186 0.0405273 36.8852 0.0405273Z" fill="url(#paint0_linear_204_108)"></path><path opacity="0.1" d="M26.5547 18.9883L10.6328 35.0324L27.0692 47.9602H36.8832C40.021 47.9602 43.0304 46.7267 45.2492 44.5312C47.468 42.3356 48.7145 39.3578 48.7145 36.2528V26.8186L26.5547 18.9883Z" fill="black"></path><path opacity="0.1" d="M48.7147 15.5157L24.1865 9.75635L22.9062 13.6498L23.8612 17.0611L48.7117 26.2946L48.7147 15.5157Z" fill="black"></path><path d="M27.5196 15.5363C27.179 15.9602 26.7397 16.2962 26.2392 16.5154C25.7387 16.7347 25.192 16.8306 24.6458 16.795C24.0997 16.7594 23.5703 16.5934 23.1032 16.3112C22.6361 16.0289 22.2451 15.6388 21.9636 15.1743C21.6821 14.7098 21.5186 14.1847 21.4871 13.644C21.4555 13.1033 21.5569 12.5631 21.7824 12.0697C22.008 11.5762 22.3511 11.1442 22.7823 10.8106C23.2135 10.477 23.72 10.2518 24.2583 10.1543C23.7802 10.7447 23.5207 11.4792 23.5229 12.2358C23.5225 13.1256 23.8792 13.9791 24.5146 14.6087C25.15 15.2383 26.012 15.5924 26.9112 15.5932C27.1154 15.5927 27.319 15.5736 27.5196 15.5363V15.5363Z" fill="#8CC63F"></path><path d="M27.4809 15.5796C27.493 15.5646 27.5082 15.5511 27.5203 15.5361C27.4537 15.5481 27.3841 15.5556 27.3145 15.5646C27.3689 15.5721 27.4249 15.5766 27.4809 15.5796Z" fill="white"></path><path d="M24.8687 17.2107C23.9197 17.2125 23.0045 16.8626 22.3032 16.2299C21.602 15.5972 21.1656 14.7277 21.0799 13.7925C20.9943 12.8573 21.2657 11.9243 21.8406 11.1772C22.4155 10.4301 23.2523 9.92316 24.1862 9.75617C24.2682 9.74125 24.3529 9.75154 24.4289 9.78565C24.5048 9.81976 24.5684 9.87606 24.6111 9.94699C24.6538 10.0179 24.6735 10.1001 24.6676 10.1824C24.6617 10.2647 24.6305 10.3433 24.5781 10.4076C24.1567 10.9254 23.9285 11.5711 23.9319 12.236C23.9323 13.0183 24.2462 13.7685 24.8048 14.3221C25.3634 14.8757 26.1211 15.1875 26.9117 15.1891C27.0905 15.1892 27.2689 15.1722 27.4444 15.1381C27.5264 15.1228 27.6112 15.1326 27.6874 15.1664C27.7636 15.2002 27.8275 15.2562 27.8705 15.327C27.9135 15.3978 27.9336 15.48 27.928 15.5624C27.9225 15.6448 27.8915 15.7236 27.8394 15.788C27.485 16.2318 27.0336 16.5904 26.519 16.8368C26.0045 17.0832 25.4403 17.211 24.8687 17.2107ZM23.3553 10.9092C23.0198 11.1085 22.7272 11.3713 22.4942 11.6825C22.2613 11.9937 22.0926 12.3473 21.9977 12.723C21.9029 13.0987 21.8837 13.4893 21.9414 13.8723C21.9991 14.2553 22.1324 14.6234 22.3338 14.9554C22.5353 15.2875 22.8008 15.577 23.1153 15.8075C23.4298 16.038 23.7871 16.205 24.1668 16.2988C24.5465 16.3927 24.9412 16.4116 25.3283 16.3546C25.7154 16.2975 26.0873 16.1656 26.4229 15.9662C25.5078 15.8475 24.6676 15.4036 24.0587 14.7173C23.4498 14.0311 23.1138 13.1492 23.1132 12.236C23.1121 11.7828 23.1947 11.3331 23.3569 10.9092H23.3553Z" fill="#39B54A"></path><path d="M26.5547 13.627L26.1718 12.4724L25.4727 12.0936L26.1718 11.7147L26.5547 10.5557L26.9376 11.7147L27.6367 12.0936L26.9376 12.4724L26.5547 13.627Z" fill="white"></path><path d="M26.5532 13.829C26.5101 13.8291 26.4681 13.8157 26.4333 13.7907C26.3985 13.7656 26.3726 13.7303 26.3594 13.6897L26.0023 12.6115L25.3743 12.2716C25.342 12.2544 25.3151 12.2289 25.2963 12.1978C25.2775 12.1667 25.2676 12.1311 25.2676 12.0949C25.2676 12.0587 25.2775 12.0231 25.2963 11.992C25.3151 11.9609 25.342 11.9354 25.3743 11.9182L26.0023 11.5783L26.3594 10.4956C26.3759 10.458 26.403 10.426 26.4376 10.4036C26.4721 10.3811 26.5126 10.3691 26.5539 10.3691C26.5953 10.3691 26.6357 10.3811 26.6703 10.4036C26.7048 10.426 26.732 10.458 26.7484 10.4956L27.1055 11.5783L27.7336 11.9182C27.7658 11.9354 27.7928 11.9609 27.8116 11.992C27.8303 12.0231 27.8403 12.0587 27.8403 12.0949C27.8403 12.1311 27.8303 12.1667 27.8116 12.1978C27.7928 12.2289 27.7658 12.2544 27.7336 12.2716L27.1055 12.6115L26.7484 13.6897C26.7351 13.7305 26.709 13.766 26.6739 13.7911C26.6388 13.8162 26.5965 13.8294 26.5532 13.829V13.829ZM25.8979 12.0949L26.2702 12.2956C26.3153 12.3202 26.3494 12.3609 26.3655 12.4094L26.5532 12.9784L26.7423 12.4094C26.7585 12.3609 26.7925 12.3202 26.8377 12.2956L27.21 12.0949L26.8377 11.8942C26.7924 11.869 26.7584 11.8278 26.7423 11.7789L26.5532 11.2099L26.3655 11.7789C26.3493 11.8278 26.3153 11.8689 26.2702 11.8942L25.8979 12.0949Z" fill="#39B54A"></path><path d="M27.5271 15.5267C27.1855 15.9494 26.7456 16.2841 26.2449 16.502C25.7442 16.72 25.1977 16.8147 24.6519 16.7782C24.1062 16.7417 23.5775 16.575 23.1111 16.2923C22.6446 16.0097 22.2542 15.6195 21.9733 15.1551C21.6923 14.6907 21.5292 14.1659 21.4978 13.6255C21.4664 13.0852 21.5676 12.5453 21.7929 12.0521C22.0182 11.5589 22.3608 11.127 22.7914 10.7932C23.222 10.4595 23.7279 10.2339 24.2658 10.1357C23.7877 10.7267 23.5282 11.4617 23.5303 12.2187C23.5281 12.7111 23.6357 13.1979 23.8453 13.6444C24.0549 14.0909 24.3615 14.4862 24.7431 14.8021C25.1248 15.118 25.5722 15.3467 26.0534 15.4719C26.5345 15.5972 27.0377 15.6159 27.5271 15.5267V15.5267Z" fill="#8CC63F"></path><path d="M22.3028 13.439C22.3023 12.852 22.458 12.2751 22.7542 11.7665C23.0504 11.2578 23.4767 10.8353 23.9902 10.5414C24.0715 10.4021 24.1631 10.269 24.2641 10.1431C23.3955 10.2984 22.6225 10.7831 22.1095 11.4938C21.5965 12.2046 21.3841 13.0854 21.5174 13.9488C21.6507 14.8122 22.1192 15.5901 22.8233 16.1168C23.5273 16.6436 24.4113 16.8778 25.2871 16.7695C24.4641 16.6716 23.7059 16.2787 23.1559 15.6649C22.606 15.0512 22.3025 14.2593 22.3028 13.439Z" fill="white"></path><path d="M27.4863 15.5698C27.4984 15.5548 27.5136 15.5413 27.5257 15.5264C27.4576 15.5383 27.388 15.5458 27.3184 15.5548L27.4863 15.5698Z" fill="white"></path><path d="M24.8729 17.2007C23.9251 17.2001 23.0119 16.8488 22.3124 16.216C21.613 15.5831 21.1779 14.7144 21.0926 13.7804C21.0073 12.8464 21.2779 11.9145 21.8513 11.1678C22.4248 10.4211 23.2596 9.91356 24.1919 9.74475C24.2737 9.7307 24.3579 9.74155 24.4334 9.77587C24.5088 9.8102 24.5719 9.86637 24.6144 9.93698C24.6569 10.0076 24.6767 10.0893 24.6713 10.1713C24.6658 10.2533 24.6353 10.3317 24.5838 10.3962C24.1624 10.9146 23.9342 11.5608 23.9376 12.2261C23.938 13.009 24.2526 13.7598 24.8123 14.3132C25.3719 14.8667 26.1307 15.1776 26.922 15.1776C27.1012 15.1776 27.28 15.1611 27.4562 15.1282C27.5379 15.1132 27.6224 15.1232 27.6982 15.157C27.7741 15.1907 27.8377 15.2465 27.8807 15.317C27.9236 15.3875 27.9438 15.4693 27.9385 15.5514C27.9332 15.6335 27.9027 15.7121 27.8511 15.7766C27.4961 16.2217 27.0436 16.5811 26.5276 16.8278C26.0117 17.0745 25.4459 17.202 24.8729 17.2007V17.2007ZM23.3596 10.8978C23.0172 11.0938 22.7176 11.3552 22.4784 11.6669C22.2391 11.9785 22.0649 12.3342 21.9659 12.7131C21.867 13.092 21.8452 13.4867 21.9018 13.874C21.9585 14.2614 22.0925 14.6337 22.296 14.9693C22.4995 15.3049 22.7685 15.5971 23.0872 15.8288C23.406 16.0605 23.7681 16.2272 24.1526 16.319C24.5371 16.4109 24.9362 16.4261 25.3267 16.3639C25.7172 16.3016 26.0912 16.1631 26.4271 15.9563C25.859 15.882 25.3152 15.6817 24.8362 15.3706C24.3572 15.0594 23.9554 14.6453 23.6605 14.1591C23.3657 13.6729 23.1855 13.1271 23.1334 12.5625C23.0813 11.9978 23.1586 11.4288 23.3596 10.8978V10.8978Z" fill="#39B54A"></path><path d="M26.5586 13.6172L26.1757 12.4627L25.4766 12.0838L26.1757 11.705L26.5586 10.5459L26.9415 11.705L27.6406 12.0838L26.9415 12.4627L26.5586 13.6172Z" fill="white"></path><path d="M26.5592 13.8195C26.5162 13.8194 26.4744 13.8059 26.4396 13.7809C26.4048 13.7559 26.3789 13.7206 26.3655 13.6802L26.0084 12.602L25.3803 12.2621C25.3482 12.2448 25.3214 12.2193 25.3028 12.1882C25.2841 12.1571 25.2743 12.1216 25.2744 12.0854C25.2744 12.049 25.2842 12.0133 25.3028 11.982C25.3215 11.9507 25.3482 11.9248 25.3803 11.9072L26.0084 11.5673L26.3655 10.4846C26.3824 10.4476 26.4098 10.4161 26.4443 10.3941C26.4788 10.3721 26.5189 10.3604 26.56 10.3604C26.6011 10.3604 26.6412 10.3721 26.6757 10.3941C26.7102 10.4161 26.7376 10.4476 26.7545 10.4846L27.1116 11.5673L27.7381 11.9072C27.7706 11.9245 27.7978 11.9502 27.8167 11.9816C27.8356 12.013 27.8456 12.0489 27.8456 12.0854C27.8457 12.1217 27.8357 12.1574 27.8168 12.1886C27.7978 12.2197 27.7706 12.2452 27.7381 12.2621L27.1101 12.602L26.7545 13.6802C26.7404 13.7205 26.7141 13.7555 26.6792 13.7805C26.6442 13.8054 26.6023 13.819 26.5592 13.8195ZM25.904 12.0824L26.2747 12.2831C26.3206 12.3073 26.3552 12.3481 26.3716 12.3969L26.5592 12.9644L26.7469 12.3969C26.7632 12.3481 26.7979 12.3073 26.8437 12.2831L27.2145 12.0824L26.8437 11.8802C26.7979 11.856 26.7632 11.8152 26.7469 11.7664L26.5592 11.1959L26.3716 11.7664C26.3552 11.8152 26.3206 11.856 26.2747 11.8802L25.904 12.0824Z" fill="#53A11A"></path><path d="M37.0418 35.0321C37.3854 33.2094 37.3191 31.3342 36.8476 29.5397C36.3761 27.7452 35.511 26.0755 34.3136 24.6492C33.1163 23.223 31.6162 22.0752 29.92 21.2875C28.2237 20.4997 26.373 20.0913 24.4992 20.0913C22.6254 20.0913 20.7746 20.4997 19.0784 21.2875C17.3821 22.0752 15.8821 23.223 14.6848 24.6492C13.4874 26.0755 12.6223 27.7452 12.1508 29.5397C11.6793 31.3342 11.613 33.2094 11.9566 35.0321H37.0418Z" fill="#8CC63F"></path><path d="M14.9134 35.0323C15.0703 32.8076 15.8227 30.6643 17.0935 28.8226C18.3642 26.9808 20.1075 25.5069 22.1443 24.5522C24.181 23.5975 26.4379 23.1965 28.6831 23.3903C30.9283 23.5842 33.0808 24.3658 34.9198 25.6551C33.2711 23.2855 30.8514 21.5468 28.0642 20.7288C25.2769 19.9107 22.2905 20.0628 19.6028 21.1596C16.9151 22.2564 14.6886 24.2317 13.2944 26.7561C11.9002 29.2806 11.4226 32.2017 11.9412 35.0323H14.9134Z" fill="white"></path><path d="M13.2825 35.0323C12.9548 33.3921 12.9984 31.7003 13.4104 30.0788C13.8224 28.4573 14.5924 26.9462 15.6651 25.6544C16.7378 24.3625 18.0864 23.322 19.6141 22.6075C21.1417 21.8931 22.8104 21.5226 24.5001 21.5226C26.1898 21.5226 27.8585 21.8931 29.3862 22.6075C30.9138 23.322 32.2625 24.3625 33.3352 25.6544C34.4078 26.9462 35.1779 28.4573 35.5898 30.0788C36.0018 31.7003 36.0455 33.3921 35.7178 35.0323H38.3676C38.4937 34.336 38.5656 33.6311 38.5825 32.9238C38.6018 31.0817 38.2518 29.2541 37.5527 27.5467C36.8537 25.8393 35.8195 24.286 34.5099 22.9766C33.2003 21.6672 31.6413 20.6278 29.9232 19.9184C28.2051 19.209 26.3618 18.8438 24.5001 18.8438C22.6384 18.8438 20.7952 19.209 19.077 19.9184C17.3589 20.6278 15.8 21.6672 14.4904 22.9766C13.1808 24.286 12.1466 25.8393 11.4475 27.5467C10.7485 29.2541 10.3985 31.0817 10.4177 32.9238C10.4347 33.6311 10.5065 34.336 10.6326 35.0323H13.2825Z" fill="#39B54A"></path></g></g><defs><linearGradient id="paint0_linear_204_108" x1="6.77728" y1="7.51598" x2="42.6905" y2="41.6288" gradientUnits="userSpaceOnUse"><stop stop-color="#8CC63F"></stop><stop offset="0.229" stop-color="#57A23B"></stop><stop offset="0.462" stop-color="#288239"></stop><stop offset="0.64" stop-color="#0A6F37"></stop><stop offset="0.742" stop-color="#006837"></stop></linearGradient><clipPath id="clip0_204_108"><rect width="251.5" height="47.81" fill="white"></rect></clipPath><clipPath id="clip1_204_108"><rect width="48.6316" height="48" fill="white" transform="translate(0.18457)"></rect></clipPath></defs></svg>